# Blender v2.61 (sub 0) OBJ File: ''
# www.blender.org
mtllib cube.mtl
o Mesh_Mesh_Mesh_cube
v -0.500000 -0.500000 -0.500000
v 0.500000 0.500000 -0.500000
v 0.500000 -0.500000 -0.500000
v -0.500000 0.500000 -0.500000
v -0.500000 0.500000 0.500000
v -0.500000 -0.500000 0.500000
v 0.500000 0.500000 0.500000
v 0.500000 -0.500000 0.500000
vt 0.000000 0.000000
vt 1.000000 1.000000
vt 1.000000 0.000000
vt 0.000000 1.000000
vn 0.000000 0.000000 -1.000000
vn -1.000000 -0.000000 0.000000
vn 0.000000 1.000000 0.000000
vn 1.000000 0.000000 0.000000
vn -0.000000 -1.000000 -0.000000
vn 0.000000 -0.000000 1.000000
usemtl cube_texture_logo.png_wall.jpg.001
s off
f 1/1/1 2/2/1 3/3/1
f 1/1/1 4/4/1 2/2/1
f 1/1/2 5/2/2 4/4/2
f 1/1/2 6/3/2 5/2/2
f 4/1/3 7/2/3 2/4/3
f 4/1/3 5/3/3 7/2/3
f 3/3/4 2/2/4 7/4/4
f 3/3/4 7/4/4 8/1/4
f 1/1/5 3/3/5 8/2/5
f 1/1/5 8/2/5 6/4/5
f 6/1/6 8/3/6 7/2/6
f 6/1/6 7/2/6 5/4/6
