# Blender v2.61 (sub 0) OBJ File: 'key.blend'
# www.blender.org
mtllib key.mtl
o Cube
v 0.125000 -0.012500 -0.012500
v 0.125000 -0.012500 0.012500
v -0.000000 -0.012500 0.012500
v 0.000000 -0.012500 -0.012500
v 0.125000 0.012500 -0.012500
v 0.125000 0.012500 0.012500
v -0.000000 0.012500 0.012500
v 0.000000 0.012500 -0.012500
v 0.137500 0.012500 0.012500
v 0.137500 0.012500 -0.012500
v 0.137500 -0.012500 0.012500
v 0.137500 -0.012500 -0.012500
v 0.137500 -0.012500 -0.037500
v 0.137500 0.012500 -0.037500
v 0.125000 0.012500 -0.037500
v 0.125000 -0.012500 -0.037500
v 0.150000 -0.012500 -0.012500
v 0.150000 -0.012500 0.012500
v 0.150000 0.012500 -0.012500
v 0.150000 0.012500 0.012500
v 0.162500 0.012500 0.012500
v 0.162500 0.012500 -0.012500
v 0.162500 -0.012500 0.012500
v 0.162500 -0.012500 -0.012500
v 0.162500 -0.012500 -0.037500
v 0.162500 0.012500 -0.037500
v 0.150000 0.012500 -0.037500
v 0.150000 -0.012500 -0.037500
v -0.012500 0.012500 -0.031250
v -0.012500 0.012500 0.031250
v -0.012500 -0.012500 -0.031250
v -0.012500 -0.012500 0.031250
v -0.025000 -0.012500 0.037500
v -0.025000 -0.012500 -0.037500
v -0.025000 0.012500 0.037500
v -0.025000 0.012500 -0.037500
v -0.018750 -0.012500 0.000000
v -0.025000 0.000000 0.037500
v -0.025000 0.000000 -0.037500
v -0.018750 0.012500 0.000000
v -0.018750 0.000000 0.000000
v -0.025000 -0.012500 0.018750
v -0.025000 -0.012500 -0.018750
v -0.025000 -0.006250 0.037500
v -0.025000 0.006250 0.037500
v -0.025000 -0.006250 -0.037500
v -0.025000 0.006250 -0.037500
v -0.025000 0.012500 0.018750
v -0.025000 0.012500 -0.018750
v -0.018750 0.006250 0.000000
v -0.025000 0.000000 0.018750
v -0.018750 -0.006250 0.000000
v -0.025000 0.000000 -0.018750
v -0.025000 0.006250 0.018750
v -0.025000 -0.006250 0.018750
v -0.025000 0.006250 -0.018750
v -0.025000 -0.006250 -0.018750
v -0.062500 -0.006250 -0.018750
v -0.062500 0.006250 -0.018750
v -0.062500 0.000000 -0.018750
v -0.062500 0.012500 -0.018750
v -0.062500 0.006250 -0.037500
v -0.062500 -0.006250 -0.037500
v -0.062500 -0.012500 -0.018750
v -0.062500 0.000000 -0.037500
v -0.062500 0.012500 -0.037500
v -0.062500 -0.012500 -0.037500
v -0.062500 -0.006250 0.018750
v -0.062500 0.006250 0.018750
v -0.062500 -0.000000 0.018750
v -0.062500 0.012500 0.018750
v -0.062500 0.006250 0.037500
v -0.062500 -0.006250 0.037500
v -0.062500 -0.012500 0.018750
v -0.062500 0.012500 0.037500
v -0.062500 -0.012500 0.037500
v -0.062500 -0.000000 0.037500
v -0.062500 0.012500 -0.000000
v -0.062500 0.006250 -0.000000
v -0.062500 -0.012500 -0.000000
v -0.062500 -0.000000 -0.000000
v -0.062500 -0.006250 -0.000000
v -0.080000 -0.006250 -0.000000
v -0.080000 0.012500 -0.000000
v -0.080000 0.006250 -0.018750
v -0.080000 -0.006250 -0.018750
v -0.080000 -0.012500 -0.000000
v -0.080000 -0.000000 -0.018750
v -0.080000 0.012500 -0.018750
v -0.080000 -0.012500 -0.018750
v -0.080000 0.006250 -0.000000
v -0.080000 -0.000000 -0.000000
v -0.080000 0.006250 0.018750
v -0.080000 -0.006250 0.018750
v -0.080000 -0.000000 0.018750
v -0.080000 0.012500 0.018750
v -0.080000 -0.012500 0.018750
vt 0.410901 0.153345
vt 0.512922 0.153658
vt 0.511357 0.663763
vt 0.409336 0.663450
vt 0.202164 0.153345
vt 0.203729 0.663450
vt 0.101708 0.663763
vt 0.100143 0.153658
vt 0.715553 0.507402
vt 0.613532 0.507090
vt 0.615088 0.000000
vt 0.717109 0.000313
vt 0.819130 0.000000
vt 0.820681 0.505469
vt 0.718659 0.505782
vt 0.099987 0.102647
vt 0.202008 0.102334
vt 0.715398 0.558111
vt 0.613376 0.557799
vt 0.411058 0.102334
vt 0.513079 0.102647
vt 0.308880 0.153032
vt 0.309036 0.102021
vt 0.306533 0.919442
vt 0.408554 0.919129
vt 0.408867 1.021150
vt 0.306846 1.021463
vt 0.304029 0.102021
vt 0.304185 0.153032
vt 0.715404 0.865461
vt 0.715717 0.967482
vt 0.613696 0.967795
vt 0.613383 0.865774
vt 0.840827 1.016261
vt 0.840514 0.914239
vt 0.891061 0.914084
vt 0.891374 1.016106
vt 0.411214 0.051324
vt 0.513235 0.051636
vt 0.485690 1.021305
vt 0.485377 0.919284
vt 0.535924 0.919129
vt 0.536237 1.021150
vt 0.715242 0.608820
vt 0.613221 0.608507
vt 0.099830 0.051637
vt 0.201851 0.051323
vt 0.099674 0.000626
vt 0.201695 0.000313
vt 0.715087 0.659529
vt 0.613065 0.659216
vt 0.411371 0.000313
vt 0.513392 0.000626
vt 0.994522 0.813721
vt 0.892501 0.814034
vt 0.892188 0.712013
vt 0.994209 0.711700
vt 0.309193 0.051010
vt 0.309349 0.000000
vt 0.994835 0.915743
vt 0.892814 0.916056
vt 0.303716 0.000000
vt 0.303872 0.051010
vt 0.994522 1.018077
vt 0.892501 1.018390
vt 0.892188 0.916368
vt 0.994209 0.916056
vt 0.409180 1.021305
vt 0.408867 0.919284
vt 0.459414 0.919129
vt 0.459727 1.021150
vt 0.280401 0.714226
vt 0.025349 0.715008
vt 0.923484 0.505782
vt 0.923171 0.403761
vt 0.999687 0.403526
vt 1.000000 0.505548
vt 0.612752 0.919129
vt 0.613065 1.021150
vt 0.536550 1.021384
vt 0.536237 0.919363
vt 0.587717 0.715008
vt 0.332664 0.714226
vt 0.460112 0.740122
vt 0.943665 0.658066
vt 0.994840 0.711387
vt 0.892819 0.711700
vt 0.664541 0.713664
vt 0.613696 0.659529
vt 0.715717 0.659842
vt 0.152953 0.740122
vt 0.613065 0.766097
vt 0.536550 0.765862
vt 0.383518 0.765393
vt 0.307002 0.765158
vt 0.892654 0.658222
vt 0.918160 0.658144
vt 0.969170 0.657987
vt 0.994676 0.657909
vt 0.715552 0.713820
vt 0.690046 0.713742
vt 0.639036 0.713585
vt 0.613531 0.713507
vt 0.306063 0.765158
vt 0.229547 0.765393
vt 0.076516 0.765862
vt 0.000000 0.766097
vt 0.743553 0.965425
vt 0.718048 0.965503
vt 0.717813 0.888987
vt 0.743318 0.888909
vt 0.769058 0.965347
vt 0.768824 0.888831
vt 0.794564 0.965268
vt 0.794329 0.888753
vt 0.820069 0.965190
vt 0.819834 0.888674
vt 0.717578 0.812471
vt 0.743084 0.812393
vt 0.768589 0.812315
vt 0.794094 0.812237
vt 0.819599 0.812158
vt 0.994821 0.152440
vt 0.969315 0.152362
vt 0.969782 0.000235
vt 0.995287 0.000313
vt 0.943810 0.152283
vt 0.944277 0.000157
vt 0.918305 0.152205
vt 0.918771 0.000078
vt 0.892799 0.152127
vt 0.893266 0.000000
vt 0.306533 0.918190
vt 0.230017 0.918425
vt 0.638571 0.865226
vt 0.613065 0.865148
vt 0.664076 0.865304
vt 0.715087 0.865461
vt 0.689581 0.865383
vt 0.383049 0.918424
vt 0.969781 0.154344
vt 0.995286 0.154422
vt 0.994821 0.306063
vt 0.969315 0.305985
vt 0.944275 0.154266
vt 0.943810 0.305907
vt 0.918770 0.154188
vt 0.918305 0.305828
vt 0.893265 0.154109
vt 0.892799 0.305750
vt 0.076985 0.918894
vt 0.000470 0.919129
vt 0.892188 0.506095
vt 0.917693 0.506017
vt 0.943198 0.505939
vt 0.968704 0.505861
vt 0.994209 0.505782
vt 0.612596 0.919129
vt 0.536080 0.918894
vt 0.000000 0.000000
vt 0.820681 0.352751
vt 0.846186 0.352672
vt 0.846421 0.429188
vt 0.820915 0.429266
vt 0.871691 0.352594
vt 0.871926 0.429110
vt 0.897196 0.352516
vt 0.897431 0.429032
vt 0.922702 0.352438
vt 0.922936 0.428953
vt 0.717109 0.659529
vt 0.716874 0.736045
vt 0.716639 0.812561
vt 0.715952 0.736045
vt 0.715717 0.659529
vt 0.716187 0.812561
vt 0.846655 0.505704
vt 0.821150 0.505782
vt 0.872161 0.505626
vt 0.897666 0.505548
vt 0.923171 0.505469
vt 0.821150 0.153032
vt 0.821619 0.000000
vt 0.892799 0.076735
vt 0.892565 0.153251
vt 0.717109 0.506095
vt 0.742614 0.506017
vt 0.742849 0.582533
vt 0.717344 0.582611
vt 0.768119 0.505939
vt 0.768354 0.582455
vt 0.793625 0.505861
vt 0.819130 0.505782
vt 0.819365 0.582298
vt 0.793859 0.582376
vt 0.891249 0.505782
vt 0.891718 0.658814
vt 0.820304 0.659033
vt 0.820069 0.582517
vt 0.820304 0.888579
vt 0.891296 0.888361
vt 0.891374 0.913867
vt 0.820382 0.914084
vt 0.820225 0.863074
vt 0.891218 0.862856
vt 0.820147 0.837569
vt 0.891140 0.837351
vt 0.820069 0.812063
vt 0.891061 0.811846
vt 0.820681 0.306063
vt 0.892330 0.229767
vt 0.743553 0.812080
vt 0.718048 0.812159
vt 0.717813 0.735643
vt 0.743318 0.735565
vt 0.769058 0.812002
vt 0.768824 0.735486
vt 0.820069 0.811846
vt 0.794564 0.811924
vt 0.794329 0.735408
vt 0.819834 0.735330
vt 0.892188 0.811846
vt 0.820538 0.735549
vt 0.743084 0.659049
vt 0.717578 0.659127
vt 0.768589 0.658970
vt 0.794094 0.658892
vt 0.819599 0.658814
vn 0.000000 -1.000000 0.000000
vn 0.000000 1.000000 0.000000
vn -0.000000 0.000000 1.000000
vn 0.000000 -0.000000 -1.000000
vn 0.000002 1.000000 0.000000
vn -0.000001 -0.000000 1.000000
vn -0.000002 -1.000000 0.000000
vn 1.000000 -0.000001 0.000001
vn -1.000000 0.000001 -0.000001
vn 0.000001 -0.000000 -1.000000
vn -0.000001 -1.000000 0.000000
vn 0.000001 1.000000 0.000000
vn 1.000000 -0.000001 0.000000
vn -1.000000 0.000001 0.000000
vn 0.832050 0.000000 -0.554700
vn 0.832050 0.000000 0.554700
vn 0.447214 0.000000 0.894427
vn 0.447214 0.000000 -0.894427
vn 0.447214 0.000001 0.894427
vn -0.948683 -0.000000 -0.316228
vn -0.948683 0.000000 0.316227
vn -0.000000 0.000001 1.000000
vn 1.000000 0.000000 0.000000
vn -0.731055 0.000000 -0.682318
vn -0.731055 0.000000 0.682318
vn -1.000000 0.000000 -0.000000
vn -1.000000 0.000000 -0.000001
usemtl Material_key.jpg
s off
f 1/1/1 2/2/1 3/3/1
f 1/1/1 3/3/1 4/4/1
f 5/5/2 8/6/2 7/7/2
f 5/5/2 7/7/2 6/8/2
f 2/9/3 6/10/3 7/11/3
f 2/9/3 7/11/3 3/12/3
f 5/12/4 1/13/4 4/14/4
f 5/12/4 4/14/4 8/15/4
f 5/5/5 6/8/5 9/16/5
f 5/5/5 9/16/5 10/17/5
f 6/10/6 2/9/6 11/18/6
f 6/10/6 11/18/6 9/19/6
f 2/2/7 1/1/7 12/20/7
f 2/2/7 12/20/7 11/21/7
f 12/20/7 1/1/7 16/22/7
f 12/20/7 16/22/7 13/23/7
f 10/24/8 12/25/8 13/26/8
f 10/24/8 13/26/8 14/27/8
f 5/5/5 10/17/5 14/28/5
f 5/5/5 14/28/5 15/29/5
f 1/30/9 5/31/9 15/32/9
f 1/30/9 15/32/9 16/33/9
f 16/34/10 15/35/10 14/36/10
f 16/34/10 14/36/10 13/37/10
f 11/21/11 12/20/11 17/38/11
f 11/21/11 17/38/11 18/39/11
f 12/40/4 10/41/4 19/42/4
f 12/40/4 19/42/4 17/43/4
f 9/19/3 11/18/3 18/44/3
f 9/19/3 18/44/3 20/45/3
f 10/17/12 9/16/12 20/46/12
f 10/17/12 20/46/12 19/47/12
f 19/47/12 20/46/12 21/48/12
f 19/47/12 21/48/12 22/49/12
f 20/45/3 18/44/3 23/50/3
f 20/45/3 23/50/3 21/51/3
f 18/39/11 17/38/11 24/52/11
f 18/39/11 24/52/11 23/53/11
f 24/54/13 22/55/13 21/56/13
f 24/54/13 21/56/13 23/57/13
f 24/52/11 17/38/11 28/58/11
f 24/52/11 28/58/11 25/59/11
f 22/55/13 24/54/13 25/60/13
f 22/55/13 25/60/13 26/61/13
f 19/47/12 22/49/12 26/62/12
f 19/47/12 26/62/12 27/63/12
f 17/64/14 19/65/14 27/66/14
f 17/64/14 27/66/14 28/67/14
f 28/68/10 27/69/10 26/70/10
f 28/68/10 26/70/10 25/71/10
f 7/7/2 8/6/2 29/72/2
f 7/7/2 29/72/2 30/73/2
f 8/74/15 4/75/15 31/76/15
f 8/74/15 31/76/15 29/77/15
f 3/78/16 7/79/16 30/80/16
f 3/78/16 30/80/16 32/81/16
f 4/4/1 3/3/1 32/82/1
f 4/4/1 32/82/1 31/83/1
f 37/84/1 31/83/1 32/82/1
f 38/85/17 32/86/17 30/87/17
f 39/88/18 29/89/18 31/90/18
f 40/91/2 30/73/2 29/72/2
f 33/92/1 42/93/1 32/82/1
f 42/93/1 37/84/1 32/82/1
f 37/84/1 43/94/1 31/83/1
f 43/94/1 34/95/1 31/83/1
f 35/96/17 45/97/17 30/87/17
f 45/97/19 38/85/19 30/87/19
f 38/85/19 44/98/19 32/86/19
f 44/98/17 33/99/17 32/86/17
f 34/100/18 46/101/18 31/90/18
f 46/101/18 39/88/18 31/90/18
f 39/88/18 47/102/18 29/89/18
f 47/102/18 36/103/18 29/89/18
f 36/104/2 49/105/2 29/72/2
f 49/105/2 40/91/2 29/72/2
f 40/91/2 48/106/2 30/73/2
f 48/106/2 35/107/2 30/73/2
f 54/108/20 48/109/20 40/110/20
f 54/108/20 40/110/20 50/111/20
f 51/112/20 54/108/20 50/111/20
f 51/112/20 50/111/20 41/113/20
f 55/114/20 51/112/20 41/113/20
f 55/114/20 41/113/20 52/115/20
f 42/116/20 55/114/20 52/115/20
f 42/116/20 52/115/20 37/117/20
f 50/111/21 40/110/21 49/118/21
f 50/111/21 49/118/21 56/119/21
f 41/113/21 50/111/21 56/119/21
f 41/113/21 56/119/21 53/120/21
f 52/115/21 41/113/21 53/120/21
f 52/115/21 53/120/21 57/121/21
f 37/117/21 52/115/21 57/121/21
f 37/117/21 57/121/21 43/122/21
f 43/123/3 57/124/3 58/125/3
f 43/123/3 58/125/3 64/126/3
f 57/124/3 53/127/3 60/128/3
f 57/124/3 60/128/3 58/125/3
f 53/127/3 56/129/3 59/130/3
f 53/127/3 59/130/3 60/128/3
f 56/129/3 49/131/3 61/132/3
f 56/129/3 61/132/3 59/130/3
f 49/105/2 36/104/2 66/133/2
f 49/105/2 66/133/2 61/134/2
f 36/103/4 47/102/4 62/135/4
f 36/103/4 62/135/4 66/136/4
f 47/102/4 39/88/4 65/137/4
f 47/102/4 65/137/4 62/135/4
f 46/101/4 34/100/4 67/138/4
f 46/101/4 67/138/4 63/139/4
f 39/88/4 46/101/4 63/139/4
f 39/88/4 63/139/4 65/137/4
f 34/95/1 43/94/1 64/140/1
f 34/95/1 64/140/1 67/133/1
f 55/141/4 42/142/4 74/143/4
f 55/141/4 74/143/4 68/144/4
f 51/145/4 55/141/4 68/144/4
f 51/145/4 68/144/4 70/146/4
f 54/147/4 51/145/4 70/146/4
f 54/147/4 70/146/4 69/148/4
f 48/149/4 54/147/4 69/148/4
f 48/149/4 69/148/4 71/150/4
f 35/107/2 48/106/2 71/151/2
f 35/107/2 71/151/2 75/152/2
f 45/97/3 35/96/3 75/153/3
f 45/97/3 75/153/3 72/154/3
f 38/85/22 45/97/22 72/154/22
f 38/85/22 72/154/22 77/155/22
f 33/99/3 44/98/3 73/156/3
f 33/99/3 73/156/3 76/157/3
f 44/98/22 38/85/22 77/155/22
f 44/98/22 77/155/22 73/156/22
f 42/93/1 33/92/1 76/158/1
f 42/93/1 76/158/1 74/159/1
f 74/160/1 76/160/1 80/160/1
f 75/160/2 71/160/2 78/160/2
f 71/161/23 69/162/23 79/163/23
f 71/161/23 79/163/23 78/164/23
f 69/162/23 70/165/23 81/166/23
f 69/162/23 81/166/23 79/163/23
f 70/165/23 68/167/23 82/168/23
f 70/165/23 82/168/23 81/166/23
f 68/167/23 74/169/23 80/170/23
f 68/167/23 80/170/23 82/168/23
f 67/171/2 64/172/2 80/173/2
f 61/174/1 66/175/1 78/176/1
f 59/177/23 61/178/23 78/164/23
f 59/177/23 78/164/23 79/163/23
f 60/179/23 59/177/23 79/163/23
f 60/179/23 79/163/23 81/166/23
f 58/180/23 60/179/23 81/166/23
f 58/180/23 81/166/23 82/168/23
f 64/181/23 58/180/23 82/168/23
f 64/181/23 82/168/23 80/170/23
f 78/182/2 66/183/2 89/184/2
f 78/182/2 89/184/2 84/185/2
f 66/186/24 62/187/24 85/188/24
f 66/186/24 85/188/24 89/189/24
f 62/187/24 65/190/24 88/191/24
f 62/187/24 88/191/24 85/188/24
f 63/192/24 67/193/24 90/194/24
f 63/192/24 90/194/24 86/195/24
f 65/190/24 63/192/24 86/195/24
f 65/190/24 86/195/24 88/191/24
f 67/196/1 80/197/1 87/198/1
f 67/196/1 87/198/1 90/199/1
f 82/200/3 83/201/3 87/202/3
f 82/200/3 87/202/3 80/203/3
f 81/204/3 92/205/3 83/201/3
f 81/204/3 83/201/3 82/200/3
f 79/206/3 91/207/3 92/205/3
f 79/206/3 92/205/3 81/204/3
f 78/208/3 84/209/3 91/207/3
f 78/208/3 91/207/3 79/206/3
f 75/210/2 78/182/2 84/185/2
f 75/210/2 84/185/2 96/211/2
f 72/212/25 75/213/25 96/214/25
f 72/212/25 96/214/25 93/215/25
f 77/216/25 72/212/25 93/215/25
f 77/216/25 93/215/25 95/217/25
f 76/218/25 73/219/25 94/220/25
f 76/218/25 94/220/25 97/221/25
f 73/219/25 77/216/25 95/217/25
f 73/219/25 95/217/25 94/220/25
f 80/197/1 76/222/1 97/223/1
f 80/197/1 97/223/1 87/198/1
f 91/224/26 84/225/26 89/189/26
f 91/224/26 89/189/26 85/188/26
f 92/226/26 91/224/26 85/188/26
f 92/226/26 85/188/26 88/191/26
f 83/227/26 92/226/26 88/191/26
f 83/227/26 88/191/26 86/195/26
f 87/228/26 83/227/26 86/195/26
f 87/228/26 86/195/26 90/194/26
f 93/215/27 96/214/27 84/225/27
f 93/215/27 84/225/27 91/224/27
f 95/217/27 93/215/27 91/224/27
f 95/217/27 91/224/27 92/226/27
f 94/220/27 95/217/27 92/226/27
f 94/220/27 92/226/27 83/227/27
f 97/221/27 94/220/27 83/227/27
f 97/221/27 83/227/27 87/228/27
