# Blender v2.61 (sub 0) OBJ File: 'key.blend'
# www.blender.org
mtllib key.mtl
o Cube
v 0.125000 -0.012500 -0.012500
v 0.125000 -0.012500 0.012500
v -0.000000 -0.012500 0.012500
v 0.000000 -0.012500 -0.012500
v 0.125000 0.012500 -0.012500
v 0.125000 0.012500 0.012500
v -0.000000 0.012500 0.012500
v 0.000000 0.012500 -0.012500
v 0.137500 0.012500 0.012500
v 0.137500 0.012500 -0.012500
v 0.137500 -0.012500 0.012500
v 0.137500 -0.012500 -0.012500
v 0.137500 -0.012500 -0.037500
v 0.137500 0.012500 -0.037500
v 0.125000 0.012500 -0.037500
v 0.125000 -0.012500 -0.037500
v 0.150000 -0.012500 -0.012500
v 0.150000 -0.012500 0.012500
v 0.150000 0.012500 -0.012500
v 0.150000 0.012500 0.012500
v 0.162500 0.012500 0.012500
v 0.162500 0.012500 -0.012500
v 0.162500 -0.012500 0.012500
v 0.162500 -0.012500 -0.012500
v 0.162500 -0.012500 -0.037500
v 0.162500 0.012500 -0.037500
v 0.150000 0.012500 -0.037500
v 0.150000 -0.012500 -0.037500
v -0.012500 0.012500 -0.031250
v -0.012500 0.012500 0.031250
v -0.012500 -0.012500 -0.031250
v -0.012500 -0.012500 0.031250
v -0.025000 -0.012500 0.037500
v -0.025000 -0.012500 -0.037500
v -0.025000 0.012500 0.037500
v -0.025000 0.012500 -0.037500
v -0.018750 -0.012500 0.000000
v -0.025000 0.000000 0.037500
v -0.025000 0.000000 -0.037500
v -0.018750 0.012500 0.000000
v -0.018750 0.000000 0.000000
v -0.025000 -0.012500 0.018750
v -0.025000 -0.012500 -0.018750
v -0.025000 -0.006250 0.037500
v -0.025000 0.006250 0.037500
v -0.025000 -0.006250 -0.037500
v -0.025000 0.006250 -0.037500
v -0.025000 0.012500 0.018750
v -0.025000 0.012500 -0.018750
v -0.018750 0.006250 0.000000
v -0.025000 0.000000 0.018750
v -0.018750 -0.006250 0.000000
v -0.025000 0.000000 -0.018750
v -0.025000 0.006250 0.018750
v -0.025000 -0.006250 0.018750
v -0.025000 0.006250 -0.018750
v -0.025000 -0.006250 -0.018750
v -0.062500 -0.006250 -0.018750
v -0.062500 0.006250 -0.018750
v -0.062500 0.000000 -0.018750
v -0.062500 0.012500 -0.018750
v -0.062500 0.006250 -0.037500
v -0.062500 -0.006250 -0.037500
v -0.062500 -0.012500 -0.018750
v -0.062500 0.000000 -0.037500
v -0.062500 0.012500 -0.037500
v -0.062500 -0.012500 -0.037500
v -0.062500 -0.006250 0.018750
v -0.062500 0.006250 0.018750
v -0.062500 -0.000000 0.018750
v -0.062500 0.012500 0.018750
v -0.062500 0.006250 0.037500
v -0.062500 -0.006250 0.037500
v -0.062500 -0.012500 0.018750
v -0.062500 0.012500 0.037500
v -0.062500 -0.012500 0.037500
v -0.062500 -0.000000 0.037500
v -0.062500 0.012500 -0.000000
v -0.062500 0.006250 -0.000000
v -0.062500 -0.012500 -0.000000
v -0.062500 -0.000000 -0.000000
v -0.062500 -0.006250 -0.000000
v -0.080000 -0.006250 -0.000000
v -0.080000 0.012500 -0.000000
v -0.080000 0.006250 -0.018750
v -0.080000 -0.006250 -0.018750
v -0.080000 -0.012500 -0.000000
v -0.080000 -0.000000 -0.018750
v -0.080000 0.012500 -0.018750
v -0.080000 -0.012500 -0.018750
v -0.080000 0.006250 -0.000000
v -0.080000 -0.000000 -0.000000
v -0.080000 0.006250 0.018750
v -0.080000 -0.006250 0.018750
v -0.080000 -0.000000 0.018750
v -0.080000 0.012500 0.018750
v -0.080000 -0.012500 0.018750
vt 0.410902 0.153345
vt 0.512923 0.153658
vt 0.511358 0.663764
vt 0.409337 0.663451
vt 0.202164 0.153345
vt 0.203729 0.663451
vt 0.101708 0.663764
vt 0.100143 0.153658
vt 0.715553 0.505783
vt 0.613531 0.505470
vt 0.615082 0.000000
vt 0.717103 0.000313
vt 0.718659 0.000000
vt 0.820680 0.000313
vt 0.819125 0.507403
vt 0.717103 0.507090
vt 0.099987 0.102647
vt 0.202008 0.102334
vt 0.715398 0.556330
vt 0.613376 0.556017
vt 0.411058 0.102334
vt 0.513079 0.102647
vt 0.308880 0.153032
vt 0.309037 0.102021
vt 0.510732 0.919443
vt 0.612753 0.919130
vt 0.613066 1.021151
vt 0.511045 1.021464
vt 0.304029 0.102021
vt 0.304186 0.153032
vt 0.715405 0.863356
vt 0.715718 0.965377
vt 0.613697 0.965690
vt 0.613384 0.863669
vt 0.460023 1.021307
vt 0.459710 0.919286
vt 0.510419 0.919130
vt 0.510732 1.021151
vt 0.411215 0.051324
vt 0.513236 0.051636
vt 0.840660 1.017883
vt 0.840347 0.915862
vt 0.891056 0.915706
vt 0.891369 1.017727
vt 0.715243 0.606877
vt 0.613221 0.606564
vt 0.099830 0.051637
vt 0.201851 0.051324
vt 0.099674 0.000626
vt 0.201695 0.000313
vt 0.715088 0.657424
vt 0.613066 0.657111
vt 0.411371 0.000313
vt 0.513392 0.000626
vt 0.994517 0.815343
vt 0.892496 0.815656
vt 0.892183 0.713635
vt 0.994204 0.713322
vt 0.309193 0.051010
vt 0.309350 0.000000
vt 0.994830 0.917364
vt 0.892809 0.917677
vt 0.303716 0.000000
vt 0.303873 0.051010
vt 0.994517 1.019698
vt 0.892496 1.020011
vt 0.892183 0.917990
vt 0.994204 0.917677
vt 0.383675 1.021307
vt 0.383362 0.919286
vt 0.434071 0.919130
vt 0.434384 1.021151
vt 0.280402 0.714227
vt 0.025349 0.715010
vt 0.923484 0.408320
vt 0.923171 0.306298
vt 0.999687 0.306064
vt 1.000000 0.408085
vt 0.383049 0.919130
vt 0.383362 1.021151
vt 0.306846 1.021386
vt 0.306533 0.919365
vt 0.587718 0.715009
vt 0.332664 0.714227
vt 0.460113 0.740123
vt 0.664542 0.809222
vt 0.715718 0.863043
vt 0.613697 0.863356
vt 0.943660 0.561038
vt 0.892813 0.507403
vt 0.994835 0.507716
vt 0.152954 0.740124
vt 0.613066 0.766098
vt 0.536550 0.765863
vt 0.383519 0.765394
vt 0.307003 0.765159
vt 0.613532 0.809378
vt 0.639037 0.809300
vt 0.690048 0.809143
vt 0.715553 0.809065
vt 0.994671 0.561195
vt 0.969165 0.561116
vt 0.918155 0.560960
vt 0.892649 0.560882
vt 0.306064 0.765159
vt 0.229548 0.765394
vt 0.076516 0.765864
vt 0.000000 0.766098
vt 0.743078 0.967047
vt 0.717573 0.967125
vt 0.717338 0.890609
vt 0.742844 0.890531
vt 0.768584 0.966968
vt 0.768349 0.890452
vt 0.794089 0.966890
vt 0.793854 0.890374
vt 0.819594 0.966812
vt 0.819359 0.890296
vt 0.717103 0.814093
vt 0.742609 0.814015
vt 0.768114 0.813936
vt 0.793619 0.813858
vt 0.819125 0.813780
vt 0.995286 0.151641
vt 0.969781 0.151719
vt 0.969315 0.000078
vt 0.994821 0.000000
vt 0.944275 0.151798
vt 0.943810 0.000156
vt 0.918770 0.151876
vt 0.918305 0.000235
vt 0.893265 0.151954
vt 0.892799 0.000313
vt 0.306533 0.918191
vt 0.230017 0.918426
vt 0.917688 0.713087
vt 0.892183 0.713009
vt 0.943193 0.713165
vt 0.968699 0.713244
vt 0.383049 0.918426
vt 0.969782 0.153858
vt 0.995287 0.153937
vt 0.994821 0.306064
vt 0.969315 0.305985
vt 0.944277 0.153780
vt 0.943810 0.305907
vt 0.918771 0.153702
vt 0.918305 0.305829
vt 0.893266 0.153624
vt 0.892799 0.305751
vt 0.076985 0.918895
vt 0.000470 0.919130
vt 0.613066 0.657737
vt 0.638572 0.657659
vt 0.664077 0.657581
vt 0.689582 0.657503
vt 0.612597 0.919130
vt 0.536081 0.918895
vt 0.000000 0.000000
vt 0.820680 0.306377
vt 0.846186 0.306298
vt 0.846420 0.382814
vt 0.820915 0.382893
vt 0.871691 0.306220
vt 0.871926 0.382736
vt 0.897196 0.306142
vt 0.897431 0.382658
vt 0.922702 0.306064
vt 0.922936 0.382580
vt 0.717103 0.657424
vt 0.716869 0.733940
vt 0.716634 0.810456
vt 0.715953 0.733940
vt 0.715718 0.657424
vt 0.716188 0.810456
vt 0.846655 0.459330
vt 0.821150 0.459409
vt 0.872160 0.459252
vt 0.897666 0.459174
vt 0.923171 0.459096
vt 0.821150 0.153032
vt 0.821619 0.000000
vt 0.892799 0.076735
vt 0.892565 0.153251
vt 0.717103 0.507716
vt 0.742609 0.507638
vt 0.742844 0.584154
vt 0.717338 0.584232
vt 0.768114 0.507560
vt 0.768349 0.584076
vt 0.793619 0.507482
vt 0.819359 0.583919
vt 0.793854 0.583997
vt 0.891244 0.507403
vt 0.891713 0.660435
vt 0.820298 0.660654
vt 0.820064 0.584138
vt 0.820298 0.838972
vt 0.891291 0.839190
vt 0.891369 0.813685
vt 0.820377 0.813467
vt 0.820220 0.864478
vt 0.891213 0.864695
vt 0.820142 0.889983
vt 0.891135 0.890201
vt 0.820064 0.915488
vt 0.820680 0.306064
vt 0.892330 0.229767
vt 0.743548 0.813702
vt 0.718042 0.813780
vt 0.717808 0.737264
vt 0.743313 0.737186
vt 0.769053 0.813624
vt 0.768818 0.737108
vt 0.820064 0.813467
vt 0.794558 0.813545
vt 0.794324 0.737029
vt 0.819829 0.736951
vt 0.892183 0.813467
vt 0.820533 0.737170
vt 0.743078 0.660670
vt 0.717573 0.660748
vt 0.768584 0.660592
vt 0.794089 0.660513
vt 0.819594 0.660435
vn 0.000000 -1.000000 0.000000
vn 0.000000 1.000000 0.000000
vn -0.000000 0.000000 1.000000
vn 0.000000 -0.000000 -1.000000
vn 0.000002 1.000000 0.000000
vn -0.000001 -0.000000 1.000000
vn -0.000002 -1.000000 0.000000
vn 1.000000 -0.000001 0.000001
vn -1.000000 0.000001 -0.000001
vn 0.000001 -0.000000 -1.000000
vn -0.000001 -1.000000 0.000000
vn 0.000001 1.000000 0.000000
vn 1.000000 -0.000001 0.000000
vn -1.000000 0.000001 0.000000
vn 0.832050 0.000000 -0.554700
vn 0.832050 0.000000 0.554700
vn 0.447214 0.000000 0.894427
vn 0.447214 0.000000 -0.894427
vn 0.447214 0.000001 0.894427
vn -0.948683 -0.000000 -0.316228
vn -0.948683 0.000000 0.316227
vn -0.000000 0.000001 1.000000
vn 1.000000 0.000000 0.000000
vn -0.731055 0.000000 -0.682318
vn -0.731055 0.000000 0.682318
vn -1.000000 0.000000 -0.000000
vn -1.000000 0.000000 -0.000001
usemtl Material
s off
f 1/1/1 2/2/1 3/3/1
f 1/1/1 3/3/1 4/4/1
f 5/5/2 8/6/2 7/7/2
f 5/5/2 7/7/2 6/8/2
f 2/9/3 6/10/3 7/11/3
f 2/9/3 7/11/3 3/12/3
f 5/13/4 1/14/4 4/15/4
f 5/13/4 4/15/4 8/16/4
f 5/5/5 6/8/5 9/17/5
f 5/5/5 9/17/5 10/18/5
f 6/10/6 2/9/6 11/19/6
f 6/10/6 11/19/6 9/20/6
f 2/2/7 1/1/7 12/21/7
f 2/2/7 12/21/7 11/22/7
f 12/21/7 1/1/7 16/23/7
f 12/21/7 16/23/7 13/24/7
f 10/25/8 12/26/8 13/27/8
f 10/25/8 13/27/8 14/28/8
f 5/5/5 10/18/5 14/29/5
f 5/5/5 14/29/5 15/30/5
f 1/31/9 5/32/9 15/33/9
f 1/31/9 15/33/9 16/34/9
f 16/35/10 15/36/10 14/37/10
f 16/35/10 14/37/10 13/38/10
f 11/22/11 12/21/11 17/39/11
f 11/22/11 17/39/11 18/40/11
f 12/41/4 10/42/4 19/43/4
f 12/41/4 19/43/4 17/44/4
f 9/20/3 11/19/3 18/45/3
f 9/20/3 18/45/3 20/46/3
f 10/18/12 9/17/12 20/47/12
f 10/18/12 20/47/12 19/48/12
f 19/48/12 20/47/12 21/49/12
f 19/48/12 21/49/12 22/50/12
f 20/46/3 18/45/3 23/51/3
f 20/46/3 23/51/3 21/52/3
f 18/40/11 17/39/11 24/53/11
f 18/40/11 24/53/11 23/54/11
f 24/55/13 22/56/13 21/57/13
f 24/55/13 21/57/13 23/58/13
f 24/53/11 17/39/11 28/59/11
f 24/53/11 28/59/11 25/60/11
f 22/56/13 24/55/13 25/61/13
f 22/56/13 25/61/13 26/62/13
f 19/48/12 22/50/12 26/63/12
f 19/48/12 26/63/12 27/64/12
f 17/65/14 19/66/14 27/67/14
f 17/65/14 27/67/14 28/68/14
f 28/69/10 27/70/10 26/71/10
f 28/69/10 26/71/10 25/72/10
f 7/7/2 8/6/2 29/73/2
f 7/7/2 29/73/2 30/74/2
f 8/75/15 4/76/15 31/77/15
f 8/75/15 31/77/15 29/78/15
f 3/79/16 7/80/16 30/81/16
f 3/79/16 30/81/16 32/82/16
f 4/4/1 3/3/1 32/83/1
f 4/4/1 32/83/1 31/84/1
f 37/85/1 31/84/1 32/83/1
f 38/86/17 32/87/17 30/88/17
f 39/89/18 29/90/18 31/91/18
f 40/92/2 30/74/2 29/73/2
f 33/93/1 42/94/1 32/83/1
f 42/94/1 37/85/1 32/83/1
f 37/85/1 43/95/1 31/84/1
f 43/95/1 34/96/1 31/84/1
f 35/97/17 45/98/17 30/88/17
f 45/98/19 38/86/19 30/88/19
f 38/86/19 44/99/19 32/87/19
f 44/99/17 33/100/17 32/87/17
f 34/101/18 46/102/18 31/91/18
f 46/102/18 39/89/18 31/91/18
f 39/89/18 47/103/18 29/90/18
f 47/103/18 36/104/18 29/90/18
f 36/105/2 49/106/2 29/73/2
f 49/106/2 40/92/2 29/73/2
f 40/92/2 48/107/2 30/74/2
f 48/107/2 35/108/2 30/74/2
f 54/109/20 48/110/20 40/111/20
f 54/109/20 40/111/20 50/112/20
f 51/113/20 54/109/20 50/112/20
f 51/113/20 50/112/20 41/114/20
f 55/115/20 51/113/20 41/114/20
f 55/115/20 41/114/20 52/116/20
f 42/117/20 55/115/20 52/116/20
f 42/117/20 52/116/20 37/118/20
f 50/112/21 40/111/21 49/119/21
f 50/112/21 49/119/21 56/120/21
f 41/114/21 50/112/21 56/120/21
f 41/114/21 56/120/21 53/121/21
f 52/116/21 41/114/21 53/121/21
f 52/116/21 53/121/21 57/122/21
f 37/118/21 52/116/21 57/122/21
f 37/118/21 57/122/21 43/123/21
f 43/124/3 57/125/3 58/126/3
f 43/124/3 58/126/3 64/127/3
f 57/125/3 53/128/3 60/129/3
f 57/125/3 60/129/3 58/126/3
f 53/128/3 56/130/3 59/131/3
f 53/128/3 59/131/3 60/129/3
f 56/130/3 49/132/3 61/133/3
f 56/130/3 61/133/3 59/131/3
f 49/106/2 36/105/2 66/134/2
f 49/106/2 66/134/2 61/135/2
f 36/104/4 47/103/4 62/136/4
f 36/104/4 62/136/4 66/137/4
f 47/103/4 39/89/4 65/138/4
f 47/103/4 65/138/4 62/136/4
f 46/102/4 34/101/4 67/58/4
f 46/102/4 67/58/4 63/139/4
f 39/89/4 46/102/4 63/139/4
f 39/89/4 63/139/4 65/138/4
f 34/96/1 43/95/1 64/140/1
f 34/96/1 64/140/1 67/134/1
f 55/141/4 42/142/4 74/143/4
f 55/141/4 74/143/4 68/144/4
f 51/145/4 55/141/4 68/144/4
f 51/145/4 68/144/4 70/146/4
f 54/147/4 51/145/4 70/146/4
f 54/147/4 70/146/4 69/148/4
f 48/149/4 54/147/4 69/148/4
f 48/149/4 69/148/4 71/150/4
f 35/108/2 48/107/2 71/151/2
f 35/108/2 71/151/2 75/152/2
f 45/98/3 35/97/3 75/153/3
f 45/98/3 75/153/3 72/154/3
f 38/86/22 45/98/22 72/154/22
f 38/86/22 72/154/22 77/155/22
f 33/100/3 44/99/3 73/156/3
f 33/100/3 73/156/3 76/51/3
f 44/99/22 38/86/22 77/155/22
f 44/99/22 77/155/22 73/156/22
f 42/94/1 33/93/1 76/157/1
f 42/94/1 76/157/1 74/158/1
f 74/159/1 76/159/1 80/159/1
f 75/159/2 71/159/2 78/159/2
f 71/160/23 69/161/23 79/162/23
f 71/160/23 79/162/23 78/163/23
f 69/161/23 70/164/23 81/165/23
f 69/161/23 81/165/23 79/162/23
f 70/164/23 68/166/23 82/167/23
f 70/164/23 82/167/23 81/165/23
f 68/166/23 74/168/23 80/169/23
f 68/166/23 80/169/23 82/167/23
f 67/170/2 64/171/2 80/172/2
f 61/173/1 66/174/1 78/175/1
f 59/176/23 61/177/23 78/163/23
f 59/176/23 78/163/23 79/162/23
f 60/178/23 59/176/23 79/162/23
f 60/178/23 79/162/23 81/165/23
f 58/179/23 60/178/23 81/165/23
f 58/179/23 81/165/23 82/167/23
f 64/180/23 58/179/23 82/167/23
f 64/180/23 82/167/23 80/169/23
f 78/181/2 66/182/2 89/183/2
f 78/181/2 89/183/2 84/184/2
f 66/185/24 62/186/24 85/187/24
f 66/185/24 85/187/24 89/188/24
f 62/186/24 65/189/24 88/190/24
f 62/186/24 88/190/24 85/187/24
f 63/191/24 67/15/24 90/192/24
f 63/191/24 90/192/24 86/193/24
f 65/189/24 63/191/24 86/193/24
f 65/189/24 86/193/24 88/190/24
f 67/194/1 80/195/1 87/196/1
f 67/194/1 87/196/1 90/197/1
f 82/198/3 83/199/3 87/200/3
f 82/198/3 87/200/3 80/201/3
f 81/202/3 92/203/3 83/199/3
f 81/202/3 83/199/3 82/198/3
f 79/204/3 91/205/3 92/203/3
f 79/204/3 92/203/3 81/202/3
f 78/206/3 84/43/3 91/205/3
f 78/206/3 91/205/3 79/204/3
f 75/207/2 78/181/2 84/184/2
f 75/207/2 84/184/2 96/208/2
f 72/209/25 75/210/25 96/211/25
f 72/209/25 96/211/25 93/212/25
f 77/213/25 72/209/25 93/212/25
f 77/213/25 93/212/25 95/214/25
f 76/215/25 73/216/25 94/217/25
f 76/215/25 94/217/25 97/218/25
f 73/216/25 77/213/25 95/214/25
f 73/216/25 95/214/25 94/217/25
f 80/195/1 76/219/1 97/220/1
f 80/195/1 97/220/1 87/196/1
f 91/221/26 84/222/26 89/188/26
f 91/221/26 89/188/26 85/187/26
f 92/223/26 91/221/26 85/187/26
f 92/223/26 85/187/26 88/190/26
f 83/224/26 92/223/26 88/190/26
f 83/224/26 88/190/26 86/193/26
f 87/225/26 83/224/26 86/193/26
f 87/225/26 86/193/26 90/192/26
f 93/212/27 96/211/27 84/222/27
f 93/212/27 84/222/27 91/221/27
f 95/214/27 93/212/27 91/221/27
f 95/214/27 91/221/27 92/223/27
f 94/217/27 95/214/27 92/223/27
f 94/217/27 92/223/27 83/224/27
f 97/218/27 94/217/27 83/224/27
f 97/218/27 83/224/27 87/225/27
